<?xml version="1.0" encoding="UTF-8"?>
<svg width="940px" height="532px" viewBox="0 0 940 532" version="1.1" xmlns="http://www.w3.org/2000/svg" xmlns:xlink="http://www.w3.org/1999/xlink">
    <!-- Generator: Sketch 46.2 (44496) - http://www.bohemiancoding.com/sketch -->
    <title>map</title>
    <desc>Created with Sketch.</desc>
    <defs></defs>
    <g id="Page-1" stroke="none" stroke-width="1" fill="none" fill-rule="evenodd">
        <g id="map" fill-rule="nonzero" fill="#000000">
            <g id="north-asia" transform="translate(466.000000, 0.000000)">
                <g id="jp" transform="translate(326.000000, 152.000000)">
                    <polygon id="Shape" points="7.2 52.98 2.32 58.57 3.18 59.92 5.57 60.21 10.06 56.74 13.22 56.16 16.09 59.53 18.29 58.76 19.15 55.48 23.26 55.38 27.28 50.56 25.18 42.56 24.22 38.32 26.32 36.59 21.54 29.37 20.3 29.47 17.72 32.36 17.72 34.77 18.87 36.12 19.25 42.48 16.29 46.14 14.57 45.08 13.23 48.07 12.94 50.86 13.99 52.5 13.32 53.75 11.12 51.92 9.59 51.92 8.25 52.69"></polygon>
                    <polygon id="Shape" points="15.43 9.44 13.9 10.79 14.67 13.68 16.01 15.03 15.91 19.46 14.19 20.13 12.85 23.12 16.77 28.51 19.35 27.64 19.83 26.29 17.06 23.79 18.78 21.57 20.6 21.86 22.03 23.4 22.13 20.22 26.05 17.04 28.25 16.46 26.43 13.38 25.57 12.03 24.14 12.99 22.9 14.53 20.22 13.95 17.45 12.12"></polygon>
                    <polygon id="Shape" points="29.86 6.45 27.18 10.21 27.37 12.04 28.71 11.46 31.86 7.51"></polygon>
                    <polygon id="Shape" points="33.4 0.96 32.44 3.56 32.54 5.29 34.17 4.23 35.7 1.15 35.7 0"></polygon>
                    <polygon id="Shape" points="2.23 62.42 0.6 64.06 1.27 66.37 2.7 66.47 3.66 71.48 4.81 72.73 6.82 70.9 7.68 67.62 5.19 64.06"></polygon>
                    <polygon id="Shape" points="11.03 59.15 8.26 61.75 8.16 64.74 8.83 65.61 12.56 62.43 12.27 59.25"></polygon>
                </g>
                <polygon id="kp" points="303.28 192.27 305.12 193.04 305.68 199.48 309.33 199.69 312.77 195.66 311.58 194.6 311.72 190.28 314.88 186.46 313.27 183.56 314.32 182.36 314.9 179.36 313.07 178.53 311.51 179.32 309.58 185.18 306.46 184.91 302.85 189.17"></polygon>
                <polygon id="kr" points="313.34 196.2 319.52 201.24 320.57 206.12 320.36 208.74 317.34 212.14 314.74 212.28 311.79 205.91 310.67 202.87 311.86 201.95 311.58 200.68 310.11 200.02"></polygon>
                <g id="ru" transform="translate(27.000000, 0.000000)">
                    <polygon id="Shape" points="237.76 10.8 240.45 13.06 242.36 12.27 242.92 9.1 239 6.39 236.42 8.09 230.14 8.66 230.14 11.49 223.52 11.6 223.52 16.23 231.26 21.99 233.28 20.52 232.83 16.45 237.77 15.21 236.76 13.29 234.97 11.48"></polygon>
                    <polygon id="Shape" points="317.73 77.01 321.25 78.02 324.77 72.45 322.76 68.65 323.51 65.36 328.79 65.36 327.53 67.89 328.03 77.01 320.49 95.75 321.24 99.8 320.99 106.64 335.06 127.15 337.82 127.91 338.07 111.2 340.83 108.67 337.81 102.09 340.32 99.3 334.79 91.96 331.77 92.21 330.77 80.06 338.56 78.03 339.06 74.48 343.08 73.47 345.34 75.5 348.1 64.36 352.87 56.26 356.64 54.23 359.91 54.48 359.91 50.68 354.63 49.67 347.34 43.59 350.86 39.54 347.84 32.7 350.35 30.17 353.37 34.22 360.91 37.01 369.2 37.77 370.21 34.23 365.94 29.93 370.71 23.35 359.9 19.55 357.14 25.12 353.62 20.56 333.77 13.72 314.92 17.01 312.16 18.53 312.16 20.05 316.18 22.08 315.68 26.89 308.39 23.85 292.31 30.18 289.55 24.36 278.49 24.36 273.46 29.68 255.62 25.63 239.29 28.92 237.28 33.98 239.79 34.74 239.54 38.54 223.71 40.31 224.72 45.37 210.14 42.84 213.66 36.26 198.83 35.5 200.09 42.34 195.32 44.62 191.3 40.82 174.97 43.61 168.69 49.43 168.44 52.97 164.42 53.22 163.92 49.17 176.74 38.03 176.74 30.43 168.45 28.15 157.64 31.69 153.12 27.13 151.11 27.13 148.6 32.19 150.61 34.47 136.28 42.32 123.97 51.69 116.43 62.07 116.43 66.37 124.47 69.66 120.45 72.7 111.91 69.66 108.39 72.7 103.11 66.62 102.1 68.9 107.88 87.13 109.39 87.64 113.41 85.61 115.42 87.13 115.42 90.42 111.65 88.9 109.39 90.67 110.9 93.96 109.64 102.57 101.85 103.33 101.35 100.54 105.87 97.75 106.88 90.15 101.85 83.57 100.09 72.18 92.05 70.91 91.3 74.96 92.81 76.99 89.54 79.78 90.8 87.38 95.57 89.41 96.58 94.98 91.8 91.94 79.49 89.66 77.98 93.71 68.18 97.25 66.67 94.72 53.85 101.81 53.6 106.62 48.57 107.38 50.08 103.84 50.08 100.3 45.05 98.53 41.78 99.8 44.54 105.12 46.55 108.66 46.55 111.45 42.78 110.69 42.03 109.93 38.26 113.98 40.27 117.52 31.73 117.27 34.49 120.82 33.74 122.34 29.22 122.34 25.95 120.06 25.2 113.73 19.92 111.7 19.92 109.17 30.98 111.45 37.01 111.96 39.52 108.16 37.26 104.11 21.18 97.78 15.63 99.16 13.73 100.79 14.32 104.54 16.68 104.95 16.13 110.85 23.41 127.95 18.15 136.29 17.79 138.17 20.46 140.05 18.05 141.64 16.45 141.67 16.75 149.02 18.96 152.15 18.99 155.19 21.82 155.45 26.15 157.1 30.73 163.4 30.78 165.06 29.29 167.61 32.71 167.42 36.04 168.38 40.54 174.75 51.62 175.76 51.14 183.34 47.32 186.61 48.11 187.89 44.34 191.94 43.34 195.74 45.6 199.03 52.89 201.56 55.91 199.79 75.26 207.13 76.01 205.1 71.99 201.3 71.99 196.49 69.48 195.73 69.98 191.68 74 186.87 66.79 181.47 67.29 173.96 75 168.89 84.05 169.4 85.56 172.19 94.86 172.7 101.65 168.9 98.13 165.1 98.88 158.01 116.47 149.4 130 155.5 134.52 151.45 147.84 164.11 157.89 163.1 161.41 166.64 170.96 167.65 177.24 159.04 185.28 162.59 189.55 163.35 193.82 159.55 190.05 157.02 193.32 151.96 202.62 155 204.63 159.05 208.65 159.3 211.16 157.53 217.95 157.28 218.7 159.05 226.49 159.56 231.77 153.99 242.58 155.26 245.85 153.99 246.85 147.91 243.58 140.57 246.85 137.78 257.15 137.78 266.95 149.43 279.51 156.52 283.28 156.52 283.78 153.48 288.3 150.69 288.8 167.15 284.78 167.4 284.78 171.45 287.04 174.24 286.62 177.86 288.29 178.55 289.3 176.02 290.81 176.53 291.81 177.54 296.33 176.53 300.85 163.36 301.35 146.9 295.57 133.73 288.28 124.87 284.76 125.38 284.76 128.17 276.22 124.88 279.49 117.79 282.25 99.05 293.81 95.51 299.34 91.97 305.37 91.97 303.86 94 305.37 96.53 310.65 90.96 313.67 91.21 313.17 87.92 308.39 86.91 311.66 75.01 315.97 70.93"></polygon>
                    <polygon id="Shape" points="296.64 120.59 296.55 126.76 304.29 138.71 307.06 149.11 311.94 158.36 313.85 159.03 315.48 157.68 316.24 155.46 309.26 147.85 309.45 143.9 310.98 143.23 311.36 140.92 297.69 121.56"></polygon>
                    <polygon id="Shape" points="244.49 21.31 241.01 20.41 239 22.56 238.1 25.5 242.81 25.05 246.4 23.24"></polygon>
                    <polygon id="Shape" points="244.94 8.09 246.73 11.48 253.69 10.69 255.6 8.2 255.15 6.05 253.24 5.26 251.45 6.62 246.29 7.75"></polygon>
                    <polygon id="Shape" points="45.82 36.79 47.54 37.48 46.33 39.56 46.33 42.51 43.75 44.07 41 44.07 39.45 42.16 39.62 40.08 40.83 38.52 43.24 38.52"></polygon>
                    <polygon id="Shape" points="82.49 49.98 81.97 52.41 78.01 55.88 69.57 57.79 62.68 69.24 61.47 72.54 68.36 74.28 69.39 70.12 71.46 63.7 76.8 60.92 81.28 57.45 84.55 56.06 86.27 56.06 86.27 51.38"></polygon>
                    <polygon id="Shape" points="60.28 75.31 64.93 75.83 66.48 81.21 70.44 85.37 69.06 88.15 66.65 88.15 64.41 85.55 59.42 85.38 57.35 82.6 57.35 80.69 60.45 79.82"></polygon>
                    <polygon id="Shape" points="52.36 34.88 52.36 36.96 54.08 38.35 56.49 38.18 58.56 36.27 58.56 34.88 56.67 34.88 55.12 35.4 53.91 34.01"></polygon>
                    <polygon id="Shape" points="62.18 35.06 63.39 37.66 65.8 37.83 67.52 37.14 66.66 34.71 64.42 34.19"></polygon>
                    <polygon id="Shape" points="71.99 31.59 70.1 31.24 68.38 32.98 69.24 34.54 69.76 36.97 72 35.24 72.52 33.33"></polygon>
                    <polygon id="Shape" points="132.95 16.15 130.71 14.76 128.13 14.76 127.61 16.32 124.86 17.88 122.79 18.57 122.45 20.65 127.27 21"></polygon>
                    <polygon id="Shape" points="138.28 16.67 137.07 19.27 134.66 19.1 130.87 21.88 129.84 25.35 132.25 25.35 133.63 23.09 136.9 25.52 140 24.13 142.24 22.22 141.38 19.27 140.17 17.19"></polygon>
                    <polygon id="Shape" points="143.28 18.58 144.49 23.44 146.38 27.95 148.45 24.31 152.41 23.44 152.41 20.84 149.83 18.93"></polygon>
                    <polygon id="Shape" points="334.68 1.76 331.76 0.86 328.4 2.1 326.72 4.59 328.85 7.42 334.46 4.93 335.58 3.69"></polygon>
                    <polygon id="Shape" points="338.04 130.03 336.8 131.57 336.9 133.98 338.05 133.88 339.96 130.51"></polygon>
                    <polygon id="Shape" points="335.75 135.91 335.75 140.15 337.09 140.63 338.05 139.09 338.05 135.82"></polygon>
                    <polygon id="Shape" points="4.61 149.72 3.11 149.57 0.41 152.8 0.41 154.31 1.31 154.66 3.06 154.71 5.96 152.34 6.36 151.53"></polygon>
                </g>
                <g id="cn" transform="translate(170.000000, 138.000000)">
                    <polygon id="Shape" points="25.4 30.07 21.94 38.77 17.17 38.52 12.14 49.53 16.41 54.97 7.61 67.12 3.09 66.36 0.07 70.16 0.82 72.44 4.34 72.69 6.1 76.74 9.62 77.5 20.43 91.43 20.43 98.52 25.71 101.81 31.49 100.8 38.78 105.1 47.58 107.63 51.85 107.12 56.63 106.61 66.68 100.03 69.95 100.54 71.2 103.51 73.97 104.34 77.74 109.91 75.23 115.48 76.74 119.28 81.01 120.8 81.76 125.36 86.79 125.87 87.54 123.59 94.83 119.79 99.35 120.04 104.63 125.86 108.15 124.34 110.41 124.59 111.42 127.38 113.18 127.63 115.69 124.09 125.74 120.29 134.79 109.4 137.81 99.02 137.56 92.18 133.79 91.42 136.05 88.89 135.55 84.84 126 75.22 126 70.41 128.76 66.87 131.52 65.6 131.77 62.81 124.73 62.81 123.47 66.61 120.2 65.85 116.18 61.55 118.69 54.97 122.21 51.17 125.48 51.42 124.98 57.24 126.74 58.76 131.01 54.46 132.52 54.21 132.02 50.92 136.04 46.11 139.06 46.36 140.82 40.79 142.88 39.7 143.09 36.23 141.09 34.13 140.92 28.65 144.77 28.4 144.52 14.27 141.82 15.89 140.81 19.51 136.3 19.5 123.23 12.15 113.79 0.77 104.21 0.67 101.77 2.79 104.87 9.89 103.79 16.55 99.93 18.15 97.76 17.98 97.6 24.57 99.86 25.08 103.88 23.31 109.16 25.84 109.16 28.37 105.39 28.62 102.37 35.2 99.61 35.45 89.81 48.36 79.51 52.92 72.47 53.43 67.7 50.14 60.91 53.69 53.62 51.41 51.86 46.6 39.55 45.84 33.02 35.21 30.26 35.21 28.04 30.28"></polygon>
                    <polygon id="Shape" points="114.83 130.17 112.44 130.84 110.72 132.96 112.15 135.75 114.25 135.94 116.64 133.82 117.21 131.03"></polygon>
                </g>
                <polygon id="mn" points="198.8 168.17 204.62 160.45 211.61 163.68 216.36 164.95 222.18 159.61 218.23 156.7 220.83 153.03 228.59 155.77 231.28 160.18 236.14 160.31 238.68 158.42 243.91 158.21 245.05 160.15 253.74 160.59 259.24 154.98 266.85 155.78 266.41 163.42 269.74 164.18 273.83 162.32 278.16 164.46 278.06 165.54 274.92 165.63 271.65 172.49 269.11 172.74 259.23 185.65 249.14 190.1 242.83 190.59 237.59 187.21 230.89 190.79 224.29 188.74 222.42 183.95 209.92 183.07 203.52 172.22 200.41 172.02"></polygon>
                <g id="sj" transform="translate(0.000000, 44.000000)">
                    <polygon id="Shape" points="13.26 7.96 11.61 6.3 7.95 8.08 1.23 8.08 0.17 12 3.94 15.33 5.59 15.09 7.95 11.05 9.95 12.48 8.53 15.33 7.82 19.49 9.47 22.1 13.01 16.16 17.61 10.57 15.84 9.03"></polygon>
                    <polygon id="Shape" points="15.26 0.83 12.31 3.56 14.08 6.29 17.26 6.29 18.56 8.07 22.45 10.09 26.93 7.48 30 4.87 28.94 2.73 25.87 0.95 23.63 2.97 22.1 1.07 20.92 1.19 19.39 4.52 17.15 2.26 16.91 0.72"></polygon>
                    <polygon id="Shape" points="21.98 13.07 19.62 15.21 17.62 16.75 18.56 18.41 20.45 19 23.52 17.57 24.94 15.79 23.64 13.65"></polygon>
                </g>
                <polygon id="kz" points="101.69 186.62 105.79 184.87 110.37 184.71 110.69 191.71 108.01 191.71 105.96 195.05 108.64 199.5 112.59 201.73 112.95 204.28 114.4 203.8 115.74 202.21 117.95 202.69 119.06 204.92 121.9 204.92 121.9 202.06 120.16 196.97 119.37 192.84 124.42 190.61 131.21 191.72 135.47 196.01 145.1 195.06 150.47 202.69 156.78 203.01 158.52 200.15 160.73 199.67 161.05 196.49 164.36 196.33 166.1 198.4 167.84 194.27 182.83 196.34 185.35 193 181.09 187.75 186.77 175.35 191.35 175.67 194.51 168.04 188.2 167.4 184.57 163.9 174.57 165.06 161.69 152.61 157.15 156.64 143.38 150.39 126.49 158.66 126.02 164.54 129.97 169.15 122.27 173.5 112.28 173.28 110.19 170.21 102.36 169.78 94.94 174.55 94.78 181.07"></polygon>
            </g>
            <g id="south-asia" transform="translate(633.000000, 225.000000)">
                <polygon id="lk" points="38.54 81.05 38.79 83.77 39.04 85.75 37.57 86 38.31 90.45 40.52 91.69 43.95 89.71 42.97 85.02 43.22 83.29 40.03 80.33"></polygon>
                <polygon id="in" points="28.98 86.01 33.56 83.77 36.28 73.93 36.16 61.85 51.74 45.03 51.74 41.04 54.95 39.79 54.83 35.18 51.37 28.45 53.35 24.84 57.68 28.83 63.24 29.08 63.24 31.32 61.51 33.19 61.88 34.19 64.85 34.31 65.47 37.67 66.34 37.67 68.57 33.68 69.68 23.22 73.39 20.6 73.51 16.99 72.03 14.12 69.68 14 60.48 20.08 61.06 23.99 54.6 23.97 52.32 21.18 51.08 21.34 51.5 25.22 37.53 24.22 28.87 20.36 28.41 15.61 22.64 12.03 22.57 4.66 18.61 0.13 9.51 1 10.5 4.96 14.96 8.57 7.25 24.35 2.09 24.74 1.24 26.64 6.32 31.34 6.07 36.09 0.88 36.01 0.32 38.37 4.63 38.18 4.75 40.05 1.66 41.67 3.64 45.41 7.47 46.66 9.82 44.92 10.93 41.81 12.29 41.19 13.9 42.81 13.41 46.8 12.3 48.67 12.55 51.91"></polygon>
                <g id="id" transform="translate(80.000000, 90.000000)">
                    <polygon id="Shape" points="59.68 7.4 57.37 16.08 44.84 20.31 41.09 15.91 39.27 16.41 42.67 29.53 47.76 30.1 54.55 32.67 54.55 35.24 57.66 34.67 62.19 28.4 62.19 23.27 64.74 18.14 67.57 18.71 64.17 11.58 63.65 6.99"></polygon>
                    <polygon id="Shape" points="109.93 22.34 105.76 22.81 103.08 24.77 104.19 27.01 108.73 27.85 108.73 28.69 105.86 31.02 107.25 35.87 108.64 35.96 109.84 31.2 112.06 31.2 112.99 35.86 123.82 44.82 124.1 51.82 127.8 55.83 129.47 55.74 129.84 31.02 123.55 26.64 117.62 30.65 115.49 31.96 111.97 29.72 111.88 22.63"></polygon>
                    <polygon id="Shape" points="67.53 32.11 69.79 34.88 68.32 39.04 68.32 39.83 71.66 39.83 72.84 29.43 73.92 29.73 75.88 39.23 77.75 39.73 79.52 35.67 77.75 29.53 76.28 26.86 80.9 23.49 79.82 22 75.4 24.87 74.22 24.87 72.06 21.7 72.75 20.31 76.39 18.53 81.89 20.21 83.56 20.11 87.69 16.25 86.02 14.57 82.19 17.54 79.73 17.54 76 15.76 73.35 15.86 70.4 20.61 68.53 28.83"></polygon>
                    <polygon id="Shape" points="92.19 13.5 90.32 18.05 93.27 21.91 94.25 21.91 95.53 19.34 96.22 18.45 94.94 17.06 93.07 16.37"></polygon>
                    <polygon id="Shape" points="97.99 28.45 93.96 29.34 92.78 30.63 93.76 32.31 96.41 31.32 98.08 30.33 100.54 32.31 101.62 31.42 99.66 29.04"></polygon>
                    <polygon id="Shape" points="0.48 0.57 0.2 2.85 6.99 14.26 8.97 14.26 23.12 37.93 28.78 38.5 31.61 30.23 27.08 27.38 26.23 22.82"></polygon>
                    <polygon id="Shape" points="31.17 41.32 28.42 43.2 29.01 44.78 37.76 46.76 42.18 47.55 44.05 49.53 49.06 49.93 51.42 51.91 53.58 51.41 55.55 49.63 51.91 47.95 48.77 45.28 40.61 43.3"></polygon>
                    <polygon id="Shape" points="84.14 51.42 79.03 55.68 79.52 56.77 81.68 56.37 84.23 53.99 89.24 53.3 88.26 51.62"></polygon>
                    <polygon id="Shape" points="69.69 50.72 69.1 51.91 73.52 52.6 76.96 50.62 75 50.03 71.86 50.92 70.68 49.93"></polygon>
                    <polygon id="Shape" points="59.77 49.93 57.61 51.12 58.89 52.51 62.03 51.32"></polygon>
                    <polygon id="Shape" points="63.5 49.04 63.89 50.92 66.15 51.51 67.03 50.42 66.05 48.93"></polygon>
                    <polygon id="Shape" points="68.91 53.99 66.16 54.39 68.62 56.47 70.58 56.47"></polygon>
                </g>
                <g id="sb" transform="translate(253.000000, 137.000000)">
                    <polygon id="Shape" points="0.43 0.65 0.58 2.93 1.97 4.25 3.28 3.44 2.11 1.01"></polygon>
                    <polygon id="Shape" points="2.18 6.31 1.01 7.56 2.25 9.84 3.71 10.28 3.64 8.74"></polygon>
                    <polygon id="Shape" points="5.03 4.99 6.05 7.49 8.02 9.84 9.11 8.08 7.65 5.58"></polygon>
                    <polygon id="Shape" points="10.14 8.74 10.72 11.83 12.11 13.74 13.28 11.32"></polygon>
                    <polygon id="Shape" points="11.74 15.65 11.23 16.53 12.91 18.74 14.08 18.81 13.35 15.94"></polygon>
                    <polygon id="Shape" points="8.02 20.05 6.27 20.86 7.8 22.99 9.11 22.25"></polygon>
                </g>
                <g id="pg" transform="translate(210.000000, 121.000000)">
                    <polygon id="Shape" points="0.76 0.29 0.39 24.73 3.91 24.54 8.54 19.13 12.43 19.32 14.93 21.56 15.76 28.46 23.72 32.66 25.76 31.91 25.76 29.39 19.37 24.07 16.22 16.79 18.72 15.58 16.87 11.57 13.17 11.48 12.24 7.19 2.43 0.57"></polygon>
                    <polygon id="Shape" points="30.89 7.03 29.94 7.25 29.36 9.82 27.54 11 22.07 11.96 22.29 14.02 28.05 13.73 31.7 11.45 31.48 7.48"></polygon>
                    <polygon id="Shape" points="28.48 1 27.6 2.25 32.41 6.51 33.07 9.01 34.38 8.86 34.53 6.29 33.07 4.97"></polygon>
                    <polygon id="Shape" points="37.38 11.51 38.62 14.96 40.81 17.09 41.47 16.5 41.25 14.22 38.77 11.21"></polygon>
                </g>
                <polygon id="tw" points="145.46 21.31 141.92 24.01 141.73 29.21 144.79 32.77 145.55 32.1"></polygon>
                <polygon id="mm" points="87.44 76.65 84.67 72.21 86.68 69.39 84.78 65.9 82.99 65.56 82.65 59.7 79.97 54.51 79.19 55.75 77.4 58.79 75.16 59.13 74.04 57.66 73.48 53.71 71.8 50.55 64.96 44.1 66.64 42.99 66.95 38.32 69.45 34.12 70.53 23.67 74.15 21.2 74.27 17.39 76.44 18.11 79.86 23.06 77.32 28.5 79.03 32.77 83.26 34.43 84.03 39.08 89.71 39.96 88.14 42.67 80.98 45.49 80.2 50.11 85.46 56.87 85.68 60.48 84.45 61.72 84.56 62.85 88.48 68.6 88.59 74.57"></polygon>
                <polygon id="th" points="88.03 43.47 91.27 47.64 91.27 52.71 92.39 53.27 97.54 50.79 98.55 51.13 104.7 58.23 104.48 63.08 102.47 62.74 100.68 61.61 99.34 61.72 96.99 65.66 97.44 67.8 99.34 68.81 99.23 71.18 97.89 71.86 93.3 68.7 93.3 65.88 91.4 65.77 90.62 67.01 90.22 79.63 93.19 85.05 98.45 90.12 98.23 91.59 95.43 91.48 92.86 87.65 90.17 87.65 86.81 84.94 85.8 82.12 87.25 79.75 87.75 77.61 89.33 74.81 89.26 68.37 85.4 62.79 85.24 62.11 86.49 60.85 86.2 56.42 81.06 49.91 81.66 46.16"></polygon>
                <g id="ph" transform="translate(141.000000, 45.000000)">
                    <polygon id="Shape" points="8.38 0.97 5.8 2.8 5.51 8.58 9.53 16.38 10.87 17.44 12.59 16.28 15.55 16.76 16.12 19.36 18.32 19.55 19.37 18.11 18.03 16.28 16.4 14.74 12.96 14.36 11.14 11.37 13.24 8.19 13.43 5.4 12 1.84"></polygon>
                    <polygon id="Shape" points="6.37 25.53 5.51 27.17 5.03 29.19 0.25 35.26 0.54 36.51 2.55 36.22 8.76 29.28"></polygon>
                    <polygon id="Shape" points="14.11 23.22 14.01 28.23 15.83 30.06 16.5 33.62 18.32 34.01 19.18 31.79 17.75 30.73 17.37 24.47"></polygon>
                    <polygon id="Shape" points="19.28 25.15 19.18 29.58 20.23 31.31 22.05 29.19 21.57 25.34"></polygon>
                    <polygon id="Shape" points="20.42 21.29 22.24 23.7 23.1 26.01 24.73 26.01 24.44 22.06 22.62 20.81"></polygon>
                    <polygon id="Shape" points="23.96 30.35 24.34 33.24 20.99 35.94 18.22 36.23 15.26 39.41 15.36 40.86 18.13 39.99 20.04 38.74 21.67 42.88 24.54 44.9 25.69 44.51 26.74 43.26 24.45 40.95 25.79 39.89 27.32 41.14 28.37 39.41 27.32 37.29 27.13 32.57"></polygon>
                    <polygon id="Shape" points="9.72 18.21 10.48 20.91 11.82 21.78 12.78 20.53 11.25 18.41"></polygon>
                </g>
                <polygon id="fj" points="306.62 185.29 305.38 186.95 305.28 188.82 306.72 190.28"></polygon>
                <polygon id="nc" points="264.64 193.47 264.29 195.26 268.9 201.69 271.38 202.76 271.73 200.26"></polygon>
                <polygon id="bn" points="137.77 92.25 134.89 95.74 137.25 96.48 138.58 94.62"></polygon>
                <g id="my" transform="translate(90.000000, 85.000000)">
                    <polygon id="Shape" points="0.71 3.45 2.72 7.96 3.17 13.82 5.86 17.99 12.35 21.93 14.81 22.16 14.36 18.1 12.23 12.92 9.11 6.29 8.85 7.45 5.09 7.28 2.39 3.4"></polygon>
                    <polygon id="Shape" points="32.14 20.92 35.16 24.41 46.74 20.4 49.03 11.56 54.19 11.19 58.91 7.77 52.79 3.31 51.39 0.86 48.37 6.43 49.48 9.63 47.64 12.3 44.17 11.41 35.76 17.58 35.98 21.15"></polygon>
                </g>
                <polygon id="np" points="29.19 15.56 29.65 19.83 37.73 23.49 50.68 24.45 50.19 21.32 41.54 18.94 34.2 14.57"></polygon>
                <polygon id="bt" points="53.4 21.08 54.95 23.2 60.19 23.24 59.66 20.34"></polygon>
                <polygon id="bd" points="53.57 26.11 52.26 28.48 55.66 34.94 55.76 39.98 56.38 41.33 60.37 41.4 62.63 39.23 64.27 40.22 64.6 43.29 65.91 42.47 65.99 38.55 64.89 38.42 64.2 35.09 61.42 34.99 60.73 33.14 62.43 30.87 62.46 29.75 57.52 29.75"></polygon>
                <polygon id="kh" points="98.48 72.47 102.57 76.84 110.18 71.2 110.85 62.3 106.92 65.01 104.88 63.87 102.11 63.5 100.56 62.41 99.81 62.45 97.78 65.78 98.11 67.32 100.17 68.47 99.92 71.6"></polygon>
                <polygon id="la" points="93.47 35.93 91.05 37.16 89.04 43.02 92.4 47.3 91.84 52.03 92.4 52.26 97.99 49.55 105.49 57.93 105.31 63.21 106.94 64.09 110.97 60.82 110.64 58.23 99.01 47.18 99.12 45.49 100.57 44.48 99.56 41.66 94.75 40.87"></polygon>
                <polygon id="vn" points="103.06 77.45 104.25 79.32 104.47 81.46 107.6 81.8 111.4 76.73 114.98 75.72 116.88 70.54 115.99 62.2 112.3 57.13 108.41 54.02 103.46 45.52 107.01 39.58 101.93 33.75 97.86 33.57 94.2 35.54 95.29 40.25 100.17 41.11 101.48 44.74 99.76 45.86 99.87 46.76 111.32 57.96 111.77 61.25 111.08 71.65"></polygon>
            </g>
            <g id="africa" transform="translate(395.000000, 223.000000)">
                <polygon id="tn" points="70.91 2.33 76.44 0.1 78.26 1.28 78.33 2.72 77.48 3.83 77.61 5.8 78.46 6.26 78.46 9.8 77.48 11.44 77.61 12.49 81.32 13.8 78.33 18.45 77.16 18.38 76.96 22.12 75.66 22.32 74.55 21.34 74.81 17.54 71.17 14 70.71 10.92 72.47 9.54"></polygon>
                <path d="M130.16,178.63 L122.26,185.93 L120.38,190.44 L114.12,189.66 L108.91,194.29 L105.45,193.95 L105.73,187.55 L104.5,187.12 L103.64,200.21 L97.5,200.15 L95.65,197.97 L92.94,197.94 L95.41,205.03 L99.82,209.2 L96.67,212.87 L98.71,217.47 L103.43,219.27 L107.19,216.07 L117.96,216.13 L118.73,215.17 L123.51,214.33 L139.68,198.23 L139.62,193.16 L137.89,195.4 L135.3,195.4 L132.15,192.76 L133.75,188.78 L136.5,188.22 L136.25,180.04 L130.16,178.63 L130.16,178.63 Z M126.37,197.13 L127.88,197.07 L130.33,199.73 L130.26,202.81 L127.39,204.26 L127.21,205.28 L122.83,205.33 L121.46,202.03 L122.71,199.61 L126.37,197.13 L126.37,197.13 Z" id="za"></path>
                <polygon id="ly" points="76.05 23.03 77.61 22.77 78.07 19.17 78.85 19.17 82.04 13.93 89.91 16.22 92.06 19.56 99.8 23.1 103.83 21.4 103.44 19.7 101.68 18 101.88 16.82 104.74 14.4 110.4 14.4 112.55 17.28 117.1 17.94 117.69 54.83 114.31 54.7 93.89 44.08 91.68 45.33 83.29 43.23 81.01 40.22 77.69 39.76 76 36.75"></polygon>
                <polygon id="dz" points="69.88 2.49 65.8 1.12 48.82 4.31 45.12 7.12 47.38 18.79 40.63 19.06 36.57 25.59 26.9 27.91 26.93 32.66 58.78 57.01 64.21 57.47 82.32 43.32 80.51 41.04 77.11 40.58 75.07 37.16 75.07 23.01 73.71 21.64 73.94 17.99 70.32 14.34 69.87 10.46 71.45 9.32 70.77 5.21"></polygon>
                <polygon id="bi" points="132.21 121.21 136.48 121.12 135.37 124.86 134.29 125.8 132.97 125.8 132.03 123.27"></polygon>
                <polygon id="tz" points="146.57 146.42 164.04 144.28 160.11 136.68 159.9 129.4 161.17 125.92 144.55 115.48 139.34 116.34 137.53 117.68 137.37 120.73 136.2 124.96 134.98 126.41 133.23 126.57 136.58 138.18 142.05 140.75 145.82 140.86"></polygon>
                <polygon id="cf" points="91.66 99.05 96.32 104.09 98.16 101.71 101.09 101.83 101.72 99.51 104.6 97.71 110.58 101.83 114.03 98.41 127.42 99 115 86.18 116.67 85.14 116.9 82.88 114.08 81.55 109.94 81.55 103.27 88.16 103.04 90.88 97.75 90.71 97.58 91.87 94.13 91.52 91.02 97.43"></polygon>
                <polygon id="cd" points="85.38 130.71 95.69 130.53 97.78 133.5 97.7 135.69 98.47 136.39 103.59 136.39 105.06 133.5 107.15 133.5 108 134.36 110.87 134.28 111.72 144.36 116.68 144.52 116.68 145.3 130.01 151.31 130.63 152.48 133.42 152.48 133.11 148.26 128.07 145.84 128.38 142.64 130.55 137.56 135.51 137.4 131.25 123.26 131.33 117.25 138.07 106.71 138.15 105.23 137.14 104.68 137.18 101.82 135.95 101.71 134.71 100.13 114.36 99.21 110.63 102.84 104.52 98.82 102.37 100.14 100.81 113.27 96.95 116.25 95.79 118.89 96 122.8 89.04 128.49 87.19 127.65 87.44 128.74"></polygon>
                <polygon id="zm" points="110.55 159.7 113.72 164.1 118.63 164.4 120.37 165.36 125.51 165.42 129.94 159.21 142.32 153.67 143.4 148.79 141.96 141.8 135.5 138.12 131.19 138.42 129.04 143.18 129.1 145.35 134.18 147.82 134.48 153.19 130.11 153.43 129.03 151.62 116.89 146.44 116.53 150.42 110.79 150.6"></polygon>
                <polygon id="eg" points="117.93 18.06 120.6 18.13 125.8 19.57 128.27 19.64 131.33 17.08 132.76 17.08 135.36 18.52 138.65 18.52 139.24 18.48 141.32 24.46 141.91 26.39 142.46 29.28 141.48 30 139.79 29.15 137.84 22.79 136.08 22.66 135.95 24.82 137.12 28.56 146.49 40.16 146.69 45.14 143.96 48.29 118.32 48"></polygon>
                <polygon id="rw" points="133.82 114.9 136.63 117.49 136.51 120.26 132.15 120.35 132.15 117.29"></polygon>
                <polygon id="ke" points="146.83 101.52 149.49 106.71 146.3 113.4 145.88 115.43 161.81 125.28 166.75 117.52 164.25 115.49 164.2 105.27 167.33 101.85 162.34 103.51 158.57 103.56 152.67 98.58 150.81 97.78 147.36 98.1 146.75 99.12"></polygon>
                <polygon id="mw" points="143.16 154.4 146.27 157.65 146.21 161.81 146.81 163.56 150.94 159.1 150.46 153.43 148.25 151.74 146.28 141.79 142.87 141.67 144.42 148.84"></polygon>
                <polygon id="mz" points="137.17 188.28 139.86 190.51 146.2 186.65 147.22 180.92 147.22 171.46 157.39 163.14 159.13 163.2 165.29 157.29 164.33 145.11 148 147.17 148.48 150.85 151.29 153.02 151.95 159.65 146.45 165.02 145.13 162.01 145.37 158.03 142.2 154.59 134.42 158.21 141.66 161.89 141.9 172.62 137.11 179.73"></polygon>
                <polygon id="zw" points="120.66 167.3 129.63 177.43 136.51 179.18 141.12 171.95 140.76 162.37 133.28 158.51 130.47 159.78 126.28 166.17 120.48 166.11"></polygon>
                <polygon id="na" points="92.55 196.96 95.9 197.2 97.87 199.19 102.54 199.25 103.68 185.99 103.68 177.31 106.67 176.71 107.81 167.61 115.41 167.37 118.1 165.14 113.55 164.96 107.39 165.8 100.75 163.39 82.09 163.39 82.57 168.69 88.79 177.85 87.71 182.55 87.77 185.02"></polygon>
                <polygon id="bw" points="104.51 186.23 106.66 186.89 106.36 193.04 108.57 193.34 113.65 188.76 119.75 189.42 121.37 185.32 129.09 178.27 119.82 167.6 119.7 165.85 118.68 165.55 115.87 168.14 108.57 168.32 107.55 177.42 104.68 178.08"></polygon>
                <polygon id="sz" points="136.87 189 134.36 189.42 133.28 192.37 135.2 194.12 137.53 194.12 139.5 191.29"></polygon>
                <polygon id="ls" points="123.41 200.39 126.46 198.04 127.9 198.1 129.64 200.27 129.46 202.44 126.53 203.52 126.53 204.36 123.3 204.18 122.52 201.83"></polygon>
                <g id="ao" transform="translate(82.000000, 126.000000)">
                    <polygon id="Shape" points="0.55 2.23 2.29 4.49 4.54 2.36 3.88 0.15 3.32 0.11"></polygon>
                    <polygon id="Shape" points="2.62 5.71 6.03 18.44 5.95 22.46 0.96 27.82 0.21 36.53 19.41 36.7 25.65 38.96 30.8 38.29 27.8 34.53 27.81 23.79 33.71 23.54 33.71 19.35 28.92 19.15 27.96 9.23 25.94 9.26 24.85 8.28 23.66 8.34 22.08 11.4 16 11.4 14.59 9.98 15.01 7.97 13.35 5.54"></polygon>
                </g>
                <polygon id="ug" points="134.3 114.09 137.33 116.93 139.23 115.72 144.37 114.88 145.25 114.97 145.58 113.02 148.48 106.92 146.04 101.84 138.13 101.89 138.08 103.98 139.14 105 138.98 107.09"></polygon>
                <polygon id="mg" points="188.3 147.92 186.17 152.98 182.52 159.42 176.13 159.88 173.39 163.1 173.85 172.92 169.89 177.52 170.35 185.34 173.7 189.17 177.66 188.71 181.62 185.79 180.71 181.19 189.84 165.39 188.01 163.4 189.84 159.57 191.82 160.18 192.43 158.65 190.6 150.83 189.53 147.61"></polygon>
                <polygon id="ma" points="44.29 7.28 32.74 7.28 30.48 12.3 25.27 14.81 20.97 26.45 12.59 31.47 0.82 50.86 12.37 50.63 12.82 44.93 15.76 44.93 15.76 37.17 25.95 37.17 26.18 27.13 35.92 24.85 40 18.23 46.34 18"></polygon>
                <polygon id="mr" points="0.9 51.66 3.08 54.51 2.63 66.83 5.8 64.55 8.06 64.09 11.23 65.23 14.85 70.25 18.25 67.97 34.78 67.74 30.7 40.13 35.08 40.11 26.92 33.86 26.93 37.92 16.6 37.93 16.55 45.68 13.58 45.67 13.2 51.39"></polygon>
                <g id="sn" transform="translate(1.000000, 64.000000)">
                    <polygon id="Shape" points="5.12 1.32 1.18 4.18 0.28 5.78 5.68434189e-14 7.38 1.45 8.42 6.29 8.35 9.4 7.51 9.75 9.04 9.47 11.06 12.44 12.52 13.06 13.22 17 13.36 17.14 11.62 13.54 7.3 9.53 1.87 7.04 0.83"></polygon>
                    <polygon id="Shape" points="1.79 11.22 3.03 14.23 3.72 12.37 12.13 13.25 8.49 11.38"></polygon>
                </g>
                <polygon id="gm" points="2.89 73.34 2.76 74.45 9.68 74.35 10.03 73.32 9.88 72.28 7.89 73.09"></polygon>
                <polygon id="gw" points="4.6 79.53 6 82.3 9.93 78.92 9.97 77.88 5.34 77.21"></polygon>
                <polygon id="gn" points="6.42 82.94 9.46 87.62 13.42 84.18 17.48 84 20.86 88.49 23.73 90.38 24.81 88.28 25.77 87.74 25.7 83.12 23.79 77.64 17.93 78.29 10.68 77.71 10.64 79.57"></polygon>
                <polygon id="sl" points="9.93 88.13 15.58 93.59 19.61 88.7 17.09 84.75 13.62 85.1"></polygon>
                <polygon id="lr" points="16.17 94.19 27.15 101.53 26.89 95.97 23.57 92.06 20.33 89.19"></polygon>
                <polygon id="ci" points="28.07 101.75 32.35 98.72 37.67 97.79 43.1 98.96 40.33 94.77 39.52 92.21 40.33 84.64 35.48 84.87 33.28 82.77 28.66 82.89 26.46 83.24 26.69 88.36 25.53 88.83 24.14 91.39 27.72 95.58"></polygon>
                <polygon id="ml" points="15.46 70.84 18.54 68.73 35.66 68.63 31.7 41.09 36.22 40.96 58.09 57.65 61.03 58.07 59.92 67.35 46.17 68.6 35.56 76.52 33.63 81.94 26.26 82.25 24.38 76.84 18.73 77.24 18.95 75.47"></polygon>
                <polygon id="bf" points="46.59 69.28 50.23 68.99 56.2 77.43 50.66 81.61 46.65 80.58 41.26 80.65 40.39 83.81 35.87 84.03 34.63 82.34 36.23 77.2"></polygon>
                <polygon id="ne" points="56.89 77 59.44 76.94 61.74 73.49 65.6 72.8 69.71 75.31 78.48 75.56 85.26 72.8 87.81 70.61 88 67.73 92.73 62.96 93.98 52.43 90.87 45.91 82.91 43.97 64.49 58.33 61.88 58.08 60.76 68.05 51.36 68.99"></polygon>
                <polygon id="gh" points="40.34 92.05 41.46 94.68 44.38 99.26 46 99.2 50.42 96.69 50.11 82.4 46.69 81.4 41.9 81.53"></polygon>
                <polygon id="tg" points="51.22 96.25 53.9 94.68 53.84 84.33 52.1 81.51 50.98 82.45"></polygon>
                <polygon id="bj" points="54.71 94.49 56.83 94.49 56.95 88.47 59.63 84.58 59.51 77.81 57.08 77.75 52.91 81.01 54.65 84.33"></polygon>
                <polygon id="ng" points="57.57 94.37 61.49 94.56 66.22 99.83 68.52 100.46 70.32 99.58 73.06 99.2 73.99 95.38 77.72 92.93 81.76 92.74 89.16 79.13 89.04 76.06 85.62 73.43 78.78 76.44 69.63 76.31 65.27 73.55 62.16 74.24 60.54 77.06 60.42 85.02 57.81 88.72"></polygon>
                <polygon id="td" points="88.79 71 88.92 68.05 93.66 63.44 94.93 52.12 91.77 46.08 93.98 44.95 115.38 56.1 115.25 67.04 111.48 70.25 111.48 75.89 113.95 80.67 109.59 80.67 102.37 87.81 102.18 89.97 96.85 89.9 96.78 90.88 93.74 90.48 91.66 86.55 90.1 85.78 90.3 84.58 92.26 83.08 92.26 76.06 89.55 75.64 86.28 73.21 88.79 71"></polygon>
                <polygon id="sd" points="116.15 67.43 116.33 55.6 118.79 55.67 118.51 49.1 144.31 49.33 148 45.61 155.96 58.34 151.6 63.48 151.6 71.33 144.74 86.08 142.38 87.12 143.13 91.23 146.07 91.23 150.06 97.02 146.86 97.43 146.04 98.92 145.96 101.07 136.36 100.9 135.38 99.41 128.67 99.03 116.35 86.35 117.58 85.61 117.91 82.63 114.96 80.89 112.27 75.58 112.42 70.64"></polygon>
                <polygon id="cm" points="73.82 99.28 77.04 102.24 76.81 106.82 94.47 106.41 95.91 104.79 90.85 99.34 90.1 97.37 93.32 91.34 91.13 87.34 89.29 86.35 89.29 84.32 91.42 82.93 91.54 76.61 89.85 76.42 89.82 79.74 82.4 93.59 77.86 93.82 74.75 95.96"></polygon>
                <polygon id="er" points="152.71 69.7 152.46 63.81 156.42 59.19 157.49 60.01 159.44 66.53 168.8 73.5 167.1 75.59 160.25 69.7"></polygon>
                <polygon id="dj" points="167.48 76.54 166.91 79.9 170.87 79.84 170.93 74.9 169.48 74.01"></polygon>
                <polygon id="et" points="145.49 86.76 152.77 70.56 160 70.6 166.41 76.17 165.96 80.76 170.93 80.76 171.44 83.52 179.48 88.33 184.44 88.58 175.01 98.71 162.06 102.7 158.85 102.7 153.13 97.82 150.87 96.87 146.49 90.42 143.6 90.46 143.26 87.5"></polygon>
                <g id="so" transform="translate(165.000000, 77.000000)">
                    <polygon id="Shape" points="22.97 2.05 27.34 0.37 28.89 1.3 28.72 5.18 24.69 16.66 2.88 40.02 0.35 38.28 0.18 28.42 3.46 24.65 10.42 22.5 20.63 11.72 23.3 9.34 24.05 5.86"></polygon>
                    <polygon id="Shape" points="6.74 3.04 10.82 5.82 12.03 5.76 22.16 2.28 23.31 5.99 22.5 9.12 20.31 10.86 14.84 10.51 7.01 5.7"></polygon>
                </g>
                <polygon id="ga" points="82.39 107.63 82.27 110.12 76.63 110 73.18 116.67 81.29 125.54 83.3 123.86 83.24 122.12 81.86 121.48 81.86 120.26 84.97 118.29 87.73 120.38 90.78 120.44 90.72 109.95 85.89 109.72 85.83 107.52"></polygon>
                <polygon id="gq" points="76.99 107.69 76.93 109.08 81.47 109.31 81.41 107.74"></polygon>
                <polygon id="cg" points="87 107.52 86.94 108.97 91.72 109.09 91.89 121.5 87.52 121.38 84.99 119.41 83.03 120.51 82.94 121.06 83.95 121.55 84.24 124.1 81.54 126.42 82.12 127.64 85.11 125.32 86.55 125.32 87.01 126.71 88.91 127.52 95.01 122.36 94.89 118.59 96.16 115.52 100.07 112.62 101.12 102.81 98.34 102.82 95.12 107.23"></polygon>
            </g>
            <g id="australia" transform="translate(747.000000, 379.000000)">
                <g id="nz" transform="translate(117.000000, 100.000000)">
                    <polygon id="Shape" points="40.02 0.96 41.08 12.76 39.66 18.12 34.34 22.05 34.69 26.7 34.69 31.7 36.11 33.49 50.66 20.98 50.66 18.12 47.11 18.12 42.14 1.32"></polygon>
                    <polygon id="Shape" points="29.38 26.7 32.22 32.06 24.41 39.57 23.7 43.5 18.38 44.21 9.51 52.43 1.35 48.5 0.64 45.64 15.54 39.21"></polygon>
                </g>
                <g id="au">
                    <polygon id="Shape" points="5.17 46.98 4.82 72.36 0.92 75.22 0.57 77.72 5.89 81.29 19.02 78.79 25.76 78.79 28.24 75.21 43.14 72.35 53.78 75.57 53.07 79.86 54.49 84.15 62.65 82.72 63 84.86 57.68 88.79 59.45 90.22 63.35 88.79 62.29 100.59 69.74 106.31 74 104.88 76.13 107.02 88.55 105.23 100.26 86.28 104.52 85.21 113.03 69.48 115.16 55.9 109.84 49.11 111.97 47.68 107.71 34.45 103.1 31.23 103.81 13.36 99.55 10.14 98.49 0.13 96.36 0.13 89.26 23.72 85.36 24.08 76.49 15.14 81.46 1.91 72.24 0.12 61.95 2.98 59.11 11.2 54.5 12.27 54.15 6.55 35.35 17.99 35.7 22.28 32.86 26.21 25.76 26.21 10.5 32.64"></polygon>
                    <polygon id="Shape" points="69.74 115.26 67.97 122.41 68.32 127.41 73.64 127.05 79.67 117.76"></polygon>
                </g>
            </g>
            <g id="south-america" transform="translate(185.000000, 278.000000)">
                <g id="fk" transform="translate(108.000000, 226.000000)">
                    <polygon id="Shape" points="5.95 2.18 3.32 1.89 0.7 3.65 2.6 5.71"></polygon>
                    <polygon id="Shape" points="8.57 0.86 7.7 3.65 5.22 5.85 5.37 6.58 9.6 4.96 11.35 2.76"></polygon>
                </g>
                <g id="cl" transform="translate(64.000000, 116.000000)">
                    <polygon id="Shape" points="27.04 118.1 22.77 127.48 30.14 128.26 30.27 122.01"></polygon>
                    <polygon id="Shape" points="25.59 116.63 22.38 120.18 21.99 124.35 15.78 120.83 9.18 111.32 7.24 107.93 9.96 104.41 9.7 99.98 6.6 98.68 4.14 96.86 4.66 94.38 7.89 93.47 8.54 79.14 3.5 76.27 0.21 1.68 1.06 0.2 7.5 15.05 9.56 15.09 10.23 17.46 7.49 20.78 4.34 38.65 8.82 52.41 6.75 62.83 14.05 93.47 14.82 111.39 20.05 117.44"></polygon>
                    <polygon id="Shape" points="4.28 79.14 2.99 81.09 3.64 84.48 4.93 84.61 5.58 80.31"></polygon>
                </g>
                <polygon id="uy" points="106.36 151.93 104.31 154.12 105.16 165.9 111.6 167.77 119.79 159.56"></polygon>
                <polygon id="bo" points="64.71 92.79 72.94 89.2 75.66 89.46 77.47 97.02 90.01 101.19 92.08 107.58 97.25 108.23 99.45 113.7 97.9 118.65 89.49 119.3 86.39 127.25 79.79 127.12 77.72 126.73 73.91 130.43 72.03 130.25 65.56 115.26 67.35 112.58 67.98 101.98 66.38 95.67"></polygon>
                <polygon id="pe" points="31.03 69.52 29.09 71.48 29.22 74.61 46.16 105.49 63.75 116.83 66.47 112.27 67.12 102.24 65.7 95.99 60.91 87.91 58.06 88.82 56.77 90.25 51.08 83.73 52.5 76.04 59.1 71.74 58.58 67.7 51.86 67.44 48.37 61.58 46.43 60.93 46.56 64.45 37.9 74.74 31.43 73.18"></polygon>
                <polygon id="ec" points="36.2 55.85 31.47 58.79 31.13 63.15 30.18 64.58 33.16 67.44 31.87 68.85 32.17 72.45 37.5 73.72 45.57 64.17 45.55 60.84 41.68 60.59"></polygon>
                <polygon id="gf" points="108.13 41.8 113.98 45.45 110.92 51.53 109.81 52.93 106.56 51.06 106.65 44.51"></polygon>
                <polygon id="sr" points="99.13 41.14 101.17 43.01 104.33 41.05 107.21 41.14 106.84 42.26 105.63 44.78 105.44 51.05 99.69 53.39 99.97 49.37 96.26 45.91 96.45 44.13"></polygon>
                <polygon id="gy" points="91.05 34.13 98.27 40.67 95.4 43.99 95.17 45.96 98.94 49.85 98.85 53.59 92.29 56.09 88.36 50.78 89.2 44.4 87.52 39.65"></polygon>
                <polygon id="br" points="120.24 158.85 126.49 146.83 126.72 136.73 138.38 129.21 144.91 129.21 150.04 120.52 150.97 103.84 148.87 99.38 161.23 88.1 161.7 75.65 144.91 67.43 124.63 61.09 115.07 60.15 117.64 54.75 116.94 46.53 114.85 45.84 111.76 51.98 110.14 54.01 105.98 52.17 91.99 57.1 87.33 51.23 88.08 45.1 83.68 49.58 78.82 46.96 78.33 47.65 78.34 49.78 82.53 52.03 76.24 58.66 72.27 58.62 68.25 54.53 63.7 54.67 63.14 59.53 65.75 62.7 62.67 72.57 59.07 72.85 53.34 76.47 51.94 83.58 56.91 88.9 57.82 87.87 61.31 86.93 64.29 91.95 72.82 88.29 76.13 88.48 78.41 96.55 90.58 100.41 92.68 106.85 97.86 107.47 100.33 113.62 98.66 119.09 100.84 121.95 100.52 126.21 106.36 125.66 111.71 132.42 111.29 137.17 114.46 139.85 106.86 151.36"></polygon>
                <polygon id="ve" points="56.46 25.92 56.9 28.51 60.15 29.54 60.89 24.77 64.32 21.22 67.75 25.24 75.64 27.39 82.32 25.99 86.87 31.6 90.3 33.75 86.54 39.48 87.8 43.82 85.65 46.48 83.42 48.35 78.59 45.92 77.48 47.04 77.48 50.5 81.01 52.18 78.41 54.99 75.81 57.8 72.38 57.52 68.93 53.73 68.2 39.47 56.42 35.45 54.28 29.18"></polygon>
                <polygon id="co" points="59.73 19.78 57.67 19.57 44.05 30.8 42.61 34.75 40.75 34.96 41.58 43.69 36.83 55.34 41.99 59.71 48.6 60.13 53.14 66.79 59.74 67 59.53 71.99 62 71.99 64.68 62.84 62.2 59.72 62.82 53.9 67.98 53.48 67.36 39.96 55.8 36.22 53.12 28.94"></polygon>
                <polygon id="pa" points="26.59 29.61 25.13 34.17 29.95 35.42 32.94 36.01 33.45 32.48 36.66 30.86 39.51 32.33 40.63 34.12 41.99 33.96 43.06 30.71 39.5 29.24 36.8 27.77 34.1 29.61 30.89 31.23 27.61 29.91"></polygon>
                <polygon id="cr" points="23.38 24.98 24.77 27.7 25.9 29.2 24.38 33.71 21.48 31.67 16.74 27.33 16.74 24.46"></polygon>
                <polygon id="ni" points="23.74 12.11 25.93 12.55 26 17.04 23.45 24.32 16.58 23.64 15.05 20.13 17.09 15.87 20.96 12.27"></polygon>
                <polygon id="hn" points="13.55 8.78 22.79 8.43 25.53 11.69 23.82 11.3 20.53 11.44 16.23 15.48 14.39 19.57 13.18 18.93 13.17 14.45 10.51 12.67"></polygon>
                <polygon id="sv" points="7.65 16.27 12.35 18.61 12.28 14.9 9.87 13.43"></polygon>
                <polygon id="bz" points="10.56 2.4 10.51 6.05 11.35 6.05 14.21 0.71 12.27 0.71"></polygon>
                <polygon id="gt" points="0.88 11.52 6.81 15.86 12.79 8.43 11.77 6.89 9.73 6.82 9.73 2.47 8.2 1.54 3.57 2.92 5.34 7"></polygon>
                <polygon id="py" points="97.76 119.51 99.96 121.91 99.7 126.99 106.04 126.6 110.83 132.73 110.44 138.2 107.34 142.89 101 143.15 100.74 140.54 102.55 136.24 96.34 132.33 91.17 132.33 87.29 128.16 90.11 120.1"></polygon>
                <g id="ar" transform="translate(69.000000, 127.000000)">
                    <polygon id="Shape" points="42.47 11.2 44.41 13.02 37.04 23.97 34.45 26.84 35.35 39.35 41.04 46.26 36.26 54.6 32.64 56.16 28.5 56.16 29.66 62.67 23.19 64.89 24.74 70.36 20.86 82.74 25.65 86.65 23.06 93.03 18.66 99.94 20.99 104.76 15.3 105.67 10.64 99.94 9.86 82.09 2.62 51.77 4.81 41.17 0.15 27.62 3.25 10.03 6.1 6.64 5.4 4.07 9.06 0.73 17.22 1.29 21.78 6.16 27.05 6.25 32.45 9.55 30.86 13.27 31.24 17.03 38.89 16.67"></polygon>
                    <polygon id="Shape" points="25.92 111.79 26.18 117.52 30.58 117.13 34.33 114.65 27.99 113.35"></polygon>
                </g>
            </g>
            <g id="caribbean" transform="translate(211.000000, 250.000000)">
                <polygon id="ag" points="56.6 31.37 55.1 31.99 55.63 33.32 57.39 32.17 57.04 31.81"></polygon>
                <polygon id="gp" points="59.07 32.88 58.19 34.75 59.25 36.17 60.57 35.02"></polygon>
                <polygon id="dm" points="62.07 38.03 61.01 39.01 61.8 40.61 63.3 40.17"></polygon>
                <polygon id="mq" points="61.98 42.03 61.27 43.54 62.42 44.78 63.92 43.98"></polygon>
                <polygon id="lc" points="62.07 45.85 60.84 46.74 61.81 48.52 63.4 47.63"></polygon>
                <polygon id="gd" points="60.57 49.31 59.42 50.46 59.86 51.17 61.27 51.17 61.71 50.01"></polygon>
                <polygon id="tt" points="62.24 52.78 61.18 53.76 60.03 53.94 60.03 55.36 62.15 57.31 63.03 55.89 63.56 54.29 63.38 52.96"></polygon>
                <polygon id="do" points="43.11 28.44 37.82 24.98 35.32 24.13 34.48 30.13 35.36 31.82 36.51 30.49 39.86 29.6 42.77 30.22"></polygon>
                <polygon id="ht" points="30.86 23.38 34.3 23.74 33.89 27.96 33.55 30.18 29.54 29.96 28.83 31.03 27.6 30.94 27.16 28.63 31.39 28.28 31.13 25.88 29.19 25.08"></polygon>
                <polygon id="cu" points="0.85 14.92 0.85 16.19 6.17 16.29 8.68 14.83 9.07 15.9 14.29 17.17 18.93 21.36 17.87 22.82 18.06 24.48 21.93 25.45 25.8 23.7 27.54 21.95 25.03 20.68 12.08 13.08 7.54 12.59"></polygon>
                <g id="bs" transform="translate(18.000000, 0.000000)">
                    <polygon id="Shape" points="1.61 7.13 0.35 6.74 0.25 9.17 1.8 10.73 2.86 9.17"></polygon>
                    <polygon id="Shape" points="4.12 10.93 2.38 11.9 4.02 14.24 4.89 13.07"></polygon>
                    <polygon id="Shape" points="9.73 12.68 7.89 12.58 8.08 13.75 9.43 15.7 10.59 14.43"></polygon>
                    <polygon id="Shape" points="8.86 10.35 5.86 9.08 5.28 6.06 6.44 5.57 7.6 7.91 8.76 8.79"></polygon>
                    <polygon id="Shape" points="5.96 4.21 4.41 3.82 4.12 1.87 2.48 1.29 3.54 0.22 5.47 0.9 6.92 1.78"></polygon>
                </g>
                <polygon id="jm" points="18.93 27.59 15.45 28.47 15.45 29.44 17.48 30.61 19.61 30.61 20.96 29.05"></polygon>
            </g>
            <g id="north-america" transform="translate(0.000000, 14.000000)">
                <g id="ca" transform="translate(121.000000, 0.000000)">
                    <polygon id="Shape" points="28.22 32.66 30.21 35.67 31.21 39.69 36.19 40.94 39.68 37.18 42.67 38.69 51.14 39.44 57.12 36.93 58.12 45.21 61.61 45.21 61.61 41.7 65.1 41.95 73.82 52.24 79.55 55.75 76.56 60.52 77.81 61.77 89 64.03 89.25 69.05 92.24 69.55 92.99 62.02 97.72 60.77 101.21 66.04 108.68 69.55 112.42 70.3 114.91 67.29 115.16 62.52 119.64 59.76 121.13 63.78 117.14 70.81 117.64 74.32 119.88 70.81 124.36 66.79 124.61 61.52 122.12 57.5 122.87 54.24 128.85 51.23 131.59 53.24 132.09 70.81 136.32 67.05 138.81 68.56 135.32 74.58 139.8 75.58 146.28 65.54 151.76 71.31 149.52 81.6 144.04 84.61 138.81 82.1 129.35 84.11 130.35 87.37 127.86 91.39 120.14 93.15 111.42 99.93 103.7 110.22 102.7 113.48 107.93 115.49 109.92 120.51 117.14 127.79 128.6 132.81 126.11 144.35 125.86 147.61 128.85 149.62 132.84 144.35 133.34 134.31 139.57 134.06 142.56 128.29 143.06 119.51 151.03 103.95 160.99 107.46 166.22 114.74 163.98 122.02 167.97 124.28 177.68 117.75 180.42 135.57 189.39 146.36 189.64 151.88 179.68 154.39 174.95 159.41 164.99 157.15 160.01 156.9 151.29 163.68 156.52 162.43 163 161.18 164.25 162.69 162.51 168.21 162.76 173.23 165.75 175.24 168.74 174.49 170.24 172.23 172.23 172.23 168.99 178.25 162.76 178.5 160.02 182.52 156.53 182.52 155.53 179.51 160.51 174.49 154.53 176.5 154.26 167.97 152.54 166.97 147.31 169.23 146.81 173.5 134.85 173.5 124.64 180.53 110.94 185.05 109.45 183.04 116.35 172.74 112.43 168.97 109.94 164.19 104.87 160.32 99.43 159.87 89.68 153.04 18.97 141.42 17.8 136.63 11.32 130.61 11.32 125.59 12.32 121.07 11.82 118.56 9.33 116.05 8.83 112.03 15.31 107.51 11.32 85.93 5.84 85.68 0.86 79.15"></polygon>
                    <polygon id="Shape" points="3.83 112.41 2.13 115.67 2.72 117.98 3.83 118.67 3.57 119.61 2.38 119.95 2.72 123.38 4 124.67 5.02 123.56 3.74 120.22 4.5 117.56 6.37 115.07 5.01 112.76"></polygon>
                    <polygon id="Shape" points="9.45 131.95 7.92 132.55 10.73 135.81 11.41 139.67 14.22 142.67 16.6 142.24 16.6 138.3 13.71 136.5"></polygon>
                    <polygon id="Shape" points="92.58 31.96 84.16 34.19 79.28 38.44 79.72 43.13 88.59 45.81 86.59 50.28 80.16 46.26 78.39 49.61 82.6 52.51 82.38 57.2 88.81 58.99 96.57 58.54 97.9 56.08 103.66 62.56 107.65 61.22 108.32 56.75 111.2 58.76 111.64 54.29 108.09 52.06 108.31 37.99 105.21 35.53 101.89 40"></polygon>
                    <polygon id="Shape" points="136.01 85.85 131.78 91.17 131.52 97.03 135.22 94.9 139.71 94.9 142.88 97.83 145.79 95.43"></polygon>
                    <polygon id="Shape" points="73.73 19.89 73.95 23.91 65.97 32.18 67.97 38.88 73.73 37.32 77.06 32.4 85.48 29.27 92.35 28.82 87.03 23.01 84.37 25.02 82.37 24.35 81.26 21.89 78.82 19.43"></polygon>
                    <polygon id="Shape" points="84.15 8.05 82.38 11.18 91.03 14.31 94.13 9.62 95.46 12.75 97.68 12.75 101.89 8.06 96.79 6.72 94.79 5.16 92.13 7.84"></polygon>
                    <polygon id="Shape" points="152.88 45.59 148 45.14 142.24 47.37 139.14 51.61 140.03 63.23 149.56 63.68 158.65 68.15 165.08 75.52 169.96 75.3 168.63 82.22 164.2 89.59 159.32 91.82 155.77 91.15 154 89.59 151.34 93.16 152.45 96.73 156.22 96.95 160.88 94.72 164.87 105 174.85 111.48 181.72 102.77 175.96 93.39 179.29 89.59 183.95 97.41 192.37 90.04 190.82 86.69 185.06 88.48 181.07 77.53 184.84 71.28 177.3 63.24 173.09 66.14 169.1 57.43 160.68 58.55 158.46 48.05 151.59 52.74 150.92 58.55 147.15 58.55 147.59 53.41"></polygon>
                    <polygon id="Shape" points="162.86 49.61 161.09 51.4 162.64 53.86 169.96 54.75 165.3 49.83"></polygon>
                    <polygon id="Shape" points="138.92 22.35 136.26 23.24 136.7 26.81 141.13 29.71 141.35 31.94 140.02 33.28 140.69 37.75 157.76 43.33 162.42 44.89 167.08 40.87 161.54 36.4 156.44 37.74 149.35 37.07 146.69 34.39 146.02 27.02 141.59 24.79"></polygon>
                    <polygon id="Shape" points="155.77 24.36 155.77 26.37 150.89 27.49 152.22 29.72 157.76 31.95 163.97 32.62 168.4 35.75 172.83 33.29 169.73 30.16 173.72 30.16 176.16 27.48 182.15 26.59 182.15 25.25 178.82 23.02 179.26 20.56 188.57 22.12 202.32 16.76 197.22 15.2 198.55 13.41 209.19 13.41 210.96 11.62 189.45 4.02 184.35 2.23 178.81 6.25 172.6 1.11 169.27 0.89 168.6 5.14 164.39 1.34 159.51 2.9 160.4 5.36 167.72 6.92 167.28 10.49 171.27 12.95 181.03 10.49 181.25 13.84 173.27 17.64 168.39 13.84 163.96 14.29 168.39 20.55 166.17 21.67 162.84 18.77 160.4 20.33 162.62 24.57 166.39 24.57 165.5 28.59 162.4 28.14 158.41 23.89"></polygon>
                    <polygon id="Shape" points="187.52 155.05 176.95 165.17 178.01 167.57 190.95 172.36 192.8 169.17 191.74 163.85 187.51 164.38 185.13 161.72 189.09 157.73"></polygon>
                    <polygon id="Shape" points="133.82 39.78 129.16 43.58 130.27 48.27 133.15 48.27 134.48 45.81 136.48 47.82 138.48 47.6 143.8 43.13"></polygon>
                    <polygon id="Shape" points="144.24 6.71 144.46 10.28 150.45 10.28 152 11.62 151.78 13.18 146.46 13.85 150.23 18.99 155.33 19.88 162.42 16.75 152.22 1.33 149.12 3.34 149.34 6.02 145.79 4.68"></polygon>
                    <polygon id="Shape" points="137.81 11.85 139.58 13.86 138.03 16.54 139.14 19.44 144.02 16.76 144.02 14.75 141.14 11.4"></polygon>
                    <polygon id="Shape" points="99.23 14.31 92.36 17.21 92.36 19.44 101.23 22.79 99.23 25.02 100.56 27.92 106.1 25.46 110.76 25.46 112.98 29.03 116.75 25.23 115.86 21.65 112.76 22.77 112.32 18.3 113.87 15.62 112.32 15.62 109.88 17.18 108.77 18.07 109.44 21.2 107.67 22.54 105.01 22.32 104.34 18.3"></polygon>
                    <polygon id="Shape" points="130.49 23.91 125.61 24.58 122.73 27.26 128.05 27.48 126.5 31.5 127.61 33.29 129.16 33.07 132.93 27.04"></polygon>
                    <polygon id="Shape" points="119.63 41.79 116.75 40.45 115.2 42.46 118.3 47.38 118.52 52.07 125.17 48.05 125.17 42.24 127.61 39.78 125.17 37.99 121.18 37.99"></polygon>
                </g>
                <g id="us" transform="translate(0.000000, 10.000000)">
                    <polygon id="Shape" points="84.11 18.89 75.72 20.88 77.45 30.33 86.58 32.82 87.07 34.81 73.5 39.04 65.85 51.72 68.56 65.15 73 68.13 76.46 64.9 77.45 66.89 73.25 71.86 56.96 79.32 46.59 81.81 46.34 85.54 70.28 78.58 80.15 75.84 89.28 64.65 99.4 57.94 94.22 66.64 99.9 67.39 109.53 63.16 111.26 70.12 117.92 71.61 124.83 78.32 125.32 83.29 124.33 84.53 125.56 89.25 127.29 89.25 127.54 81.29 129.51 81.29 130 100.93 134.94 96.7 131.48 76.31 126.3 76.31 120.62 69.1 148.51 21.85 120.87 0.22 90.02 6.19 88.79 15.64 95.45 19.62 92.98 26.09"></polygon>
                    <polygon id="Shape" points="139.76 132.34 138.76 136.36 135.27 134.1 133.53 134.1 132.53 138.37 120.32 165.73 123.56 189.57 127.55 191.58 128.3 198.11 136.52 198.11 144.49 204.13 160.18 205.64 161.92 213.67 164.41 215.43 167.9 211.92 170.64 213.17 173.13 224.71 177.36 227.47 180.85 220.94 191.56 213.16 198.53 216.42 204.51 216.92 204.76 213.16 217.21 213.41 219.7 216.17 220.2 222.44 218.71 225.95 220.45 231.97 224.19 231.97 227.93 226.2 226.44 223.44 224.95 217.42 227.19 210.64 237.4 201.86 245.12 199.6 244.12 192.32 254.83 180.77 265.54 179.01 263.8 173 274.26 166.98 274.26 158.95 273.26 158.45 269.52 159.7 269.02 164.62 256.59 164.77 246.85 171.24 231.56 176.24 229.12 173.25 236.06 162.75 232.63 159.48 230.3 155.04 225.47 151.16 220.22 150.72 210.3 143.95"></polygon>
                    <polygon id="Shape" points="12.81 233.65 11.86 239.12 12.81 241.17 15.93 240.21 17.56 237.47 14.16 234.32"></polygon>
                    <polygon id="Shape" points="60.17 27.35 63.63 33.82 65.85 33.32 65.85 31.08"></polygon>
                    <polygon id="Shape" points="40.66 84.26 40.49 87.27 42.65 86.77 42.65 85.43"></polygon>
                    <polygon id="Shape" points="37.34 85.6 33.02 87.78 33.69 90.12 35.35 88.78 38.67 87.27"></polygon>
                    <polygon id="Shape" points="19.39 88.44 16.4 87.77 15.9 89.11 16.23 91.62"></polygon>
                    <polygon id="Shape" points="13.07 88.28 10.24 87.11 9.24 88.95 11.07 90.79"></polygon>
                    <polygon id="Shape" points="3.27 85.6 1.94 83.76 0.61 84.26 0.61 86.77 2.11 87.77"></polygon>
                    <polygon id="Shape" points="1 222.7 0.86 225.03 2.9 226.4 4.12 225.31"></polygon>
                    <polygon id="Shape" points="6.29 226.13 4.39 227.5 6.02 229.55 7.92 227.91"></polygon>
                    <polygon id="Shape" points="10.1 229.41 8.47 231.6 9.01 232.97 11.32 231.88"></polygon>
                </g>
                <polygon id="mx" points="128.49 209.43 133.32 224.64 131.07 225.9 131.32 228.92 135.57 232.19 135.57 238.24 140.82 243.28 138.57 228.42 135.57 218.59 136.32 211.79 138.82 212.04 139.82 214.31 138.82 220.1 151.82 245.54 151.82 254.61 162.32 266.95 173.82 272.24 178.57 269.47 185.32 275.01 189.32 270.98 187.57 266.44 193.32 264.68 195.07 265.69 196.82 263.93 199.57 263.93 204.57 255.11 202.07 252.84 192.32 255.11 190.07 261.66 184.32 262.67 177.57 259.9 174.57 250.33 176.84 238.26 172.2 235.37 169.99 223.78 168.14 222.99 164.76 226.42 160.88 224.35 159.36 216.62 143.99 215.01 136.05 209.04"></polygon>
                <polygon id="pr" points="262.05 265.06 259.41 264.17 257.29 265.5 258.35 266.74 261.96 267.27"></polygon>
            </g>
            <g id="middle-east" transform="translate(510.000000, 191.000000)">
                <polygon id="ge" points="36.46 11.16 39.73 15.43 43.81 17.31 46.32 17.3 50.63 16.13 51.71 14.44 38.96 9.67"></polygon>
                <polygon id="am" points="50.72 16.89 55.52 23.15 54.11 24.8 50.71 24.21 46.49 20.43 46.72 17.95"></polygon>
                <polygon id="az" points="52.41 14.72 51.4 16.44 56.11 22.62 57.75 22.09 60.45 24.92 61.62 19.96 64.55 20.43 64.43 19.01 59.61 14.79 58.69 17.27"></polygon>
                <polygon id="ir" points="50.65 24.95 49.43 26.22 49.55 28.23 51.07 30.36 56.46 36.26 55.64 38.62 54.7 38.62 54.23 40.98 57.28 44.88 60.09 45.12 65.72 52.91 68.88 53.15 71.34 54.92 71.46 58.46 81.19 64.13 84.82 64.13 87.05 62.24 89.86 62.12 91.5 65.9 102.01 67.36 102.32 63.5 105.8 62.24 105.96 60.86 103.19 57.08 97.02 52.12 100.26 49.17 100.03 47.87 95.97 47.24 94.25 33.54 94.05 30.39 83.04 26.18 78.16 27.28 75.43 30.63 73.01 30.47 72.31 31.06 66.92 30.71 60.12 25.75 57.59 22.98 56.43 23.26 54.34 25.65"></polygon>
                <polygon id="om" points="79.38 87.84 86.77 83.58 88.08 77.33 86.46 76.4 87.13 69.7 88.54 68.88 90.05 71.25 99.04 75.95 99.04 78.56 88.15 94.59 83.14 94.76"></polygon>
                <polygon id="ae" points="75.01 71.94 75.88 75.42 85.74 76.29 86.43 69.15 88.33 68.11 88.85 65.5 85.74 66.37 82.28 71.6"></polygon>
                <polygon id="qa" points="73.63 66.02 73.11 70.03 74.65 71.2 76.05 71.07 76.57 66.02 75.36 65.15"></polygon>
                <polygon id="kw" points="64.29 54.17 62.04 52.95 60.48 54.52 60.65 57.66 64.28 59.05"></polygon>
                <polygon id="sa" points="65 60.24 72.01 70.01 74.27 71.81 75.28 76.19 86.07 77.04 87.29 77.68 86.08 83.08 78.99 87.26 68.62 90.4 63.09 95.8 56.52 91.97 52.54 95.45 47 86.4 43.2 84.66 41.82 82.57 41.82 78.04 27.99 61.32 27.47 58.36 31.45 58.36 36.29 54.18 36.46 52.09 35.08 50.7 37.85 48.44 43.73 48.79 53.76 57.15 59.68 56.88 60.06 58.34"></polygon>
                <polygon id="sy" points="27.67 36.13 27.32 38.67 30.14 39.85 30.02 46.89 32.84 46.83 35.66 44.7 36.72 44.52 43.12 39.43 44.41 32.04 31.62 33.34 30.27 36.3"></polygon>
                <polygon id="iq" points="45.31 32.03 43.75 39.74 37.29 45.12 37.7 47.66 44.01 48.09 54.06 56.27 59.68 56.11 59.83 54.22 61.89 52.01 64.77 53.64 65.15 53.28 59.58 45.87 56.94 45.71 53.43 41.2 54.13 37.88 55.2 37.74 55.57 36.27 50.79 31.24"></polygon>
                <polygon id="jo" points="29.9 47.78 27.44 56.36 27.33 57.67 31.2 57.67 35.53 53.85 35.64 52.4 33.87 50.59 37.04 47.96 36.58 45.52 35.71 45.72 33.07 47.61"></polygon>
                <polygon id="lb" points="27.2 39.44 27.26 41.39 26.44 44.35 29.26 44.59 29.44 40.39"></polygon>
                <polygon id="il" points="26.32 45.06 24.74 50.09 26.79 56.12 29.14 47.31 29.14 45.42"></polygon>
                <polygon id="tm" points="74.85 14.59 74.23 17.22 70.08 17.22 70.08 20.78 74.54 23.72 73.16 27.75 73.16 29.61 75.01 29.92 77.47 26.67 83.01 25.43 94.85 29.92 95 33.17 101.61 33.79 108.99 26.04 108.07 23.56 103.15 22.48 89.31 13.49 88.69 10.24 83.46 10.24 81.15 14.58 78.84 14.58"></polygon>
                <polygon id="uz" points="109.92 26.06 113 26.22 113 20.95 110.08 19.25 115 13.05 117 13.05 119 15.38 124.23 13.37 117 10.89 116.72 9.39 115 9.81 113.31 12.75 106.02 12.51 100.67 4.94 91.27 5.87 86.79 1.43 80.59 0.38 76.09 2.21 78.7 10.89 78.73 13.81 80.63 13.85 82.96 9.41 89.16 9.49 90.08 12.9 103.37 21.72 108.51 22.9"></polygon>
                <polygon id="tj" points="111.19 18.84 115.3 13.74 116.85 13.74 117.39 14.88 115.49 16.26 115.49 17.4 116.74 18.3 122.75 18.66 124.71 17.82 125.6 18 126.2 19.92 129.77 20.28 131.56 24.06 131.02 25.2 130.31 25.26 129.6 23.82 128.05 23.7 125.37 24.06 125.19 26.58 122.51 26.4 122.63 23.22 120.67 21.3 117.69 23.76 117.75 25.38 115.13 26.28 113.58 26.28 113.7 20.7"></polygon>
                <polygon id="kg" points="117.81 6.21 117.5 8.74 117.75 10.3 126.45 13.22 118.81 16.3 117.94 15.58 116.29 16.64 116.37 17.22 117.25 17.62 122.61 17.76 125.33 16.94 128.82 12.54 133.19 13.3 138.46 6 124.36 4.08 122.41 8.81 119.95 6.17"></polygon>
                <polygon id="af" points="95.12 34.05 96.71 46.51 100.67 47.38 101.04 49.62 98.2 51.99 103.49 56.26 113.77 52.56 114.59 48.18 121.06 44.14 123.54 34.78 125.39 32.79 123.47 29.45 129.73 25.58 128.93 24.46 126.04 24.64 125.78 27.3 121.9 27.26 121.83 23.71 120.58 22.22 118.48 24.13 118.54 25.88 115.37 27.08 109.52 26.71 101.92 34.67"></polygon>
                <polygon id="pk" points="104.13 56.84 106.73 60.7 106.48 62.69 103.02 64.06 102.77 67.3 106.73 67.3 108.09 66.18 115.63 66.18 122.43 72.16 123.3 69.29 128.37 69.29 128.49 65.68 123.3 60.7 124.41 57.96 129.73 57.59 136.9 42.64 132.94 39.53 131.46 34.3 141.1 33.43 135.41 25.33 132.38 24.51 131.14 26.01 130.21 26.08 124.52 29.69 126.38 32.81 124.28 35.05 121.68 44.64 115.25 48.75 114.38 53.24"></polygon>
                <g id="tr" transform="translate(0.000000, 15.000000)">
                    <polygon id="Shape" points="39.7 1.19 37.47 3.55 29.27 3.31 24.35 0.36 19.55 0.24 14.04 4.14 8.88 4.38 8.41 7.33 2.55 7.33 0.21 9.46 0.21 10.64 1.62 11.82 1.62 13.12 1.03 14.66 1.62 15.96 3.5 15.02 5.38 17.03 4.91 18.45 4.21 19.4 5.26 20.58 10.42 21.64 14.05 20.1 14.05 17.86 15.81 18.21 20.03 20.69 24.6 19.98 26.59 18.09 27.88 18.56 27.88 20.69 29.64 20.69 31.16 17.74 44.52 16.32 50.35 15.61 48.81 13.59 48.78 10.86 49.95 9.46 45.69 6.04 45.92 3.09 43.58 3.09"></polygon>
                    <polygon id="Shape" points="4.02 1.7 3.86 5.25 6.96 4.3 8.38 3.35 7.96 1.81 6.49 0.64"></polygon>
                </g>
                <g id="ye" transform="translate(52.000000, 88.000000)">
                    <polygon id="Shape" points="0.99 8.23 2.43 12.51 2.43 16.69 5.89 19.83 30.27 9.9 30.5 7.17 26.59 0.15 16.78 3.28 11.15 8.82 4.62 4.96"></polygon>
                    <polygon id="Shape" points="28.62 18.65 30.75 21.03 33.63 19.29 34.67 18.94 33.35 17.66 30.82 18.41"></polygon>
                </g>
            </g>
            <g id="europe" transform="translate(310.000000, 26.000000)">
                <g id="gr" transform="translate(187.000000, 182.000000)">
                    <polygon id="Shape" points="0.71 7.6 0.6 8.93 5.23 11.26 7.44 12.11 6.28 13.33 3.7 13.59 3.33 14.76 4.22 16.77 7.11 18.31 8.37 18.42 8.53 14.97 10.42 12.69 5.26 6.59 5.94 4.52 7.15 4.47 8.99 5.95 10.15 5.37 10.52 3.3 15.94 3.35 16.15 0.17 13.89 1.76 7.26 1.6 2.95 3.83"></polygon>
                    <polygon id="Shape" points="10.76 20.59 12.39 20.64 13.07 21.65 15.44 21.65 17.02 21.07 17.55 21.71 16.5 23.09 11.87 23.25 11.03 22.14 10.14 21.61"></polygon>
                </g>
                <g id="it" transform="translate(152.000000, 164.000000)">
                    <polygon id="Shape" points="6.56 21.38 3.91 22.72 4.26 27.89 6.38 28.25 7.97 26.73 7.97 21.83"></polygon>
                    <polygon id="Shape" points="1.27 4.98 0.65 6.55 0.82 8.26 3.21 11.05 6.97 10.92 15.27 20.56 20.45 22.06 23.51 24.95 24.24 31.54 25.88 30.58 27.3 26.99 26.95 24.41 29.38 24.19 29.73 22.73 22.88 19.45 16.38 13.06 13.79 9.24 13.16 5.61 16.47 4.82 15.62 2.43 13.59 0.72 11.84 0.64 9.4 1.31 7.1 4.53 5.71 5.45 3.56 4.13"></polygon>
                    <polygon id="Shape" points="21.44 31.02 19.99 30.24 15.04 31.02 15.21 32.36 19.66 34.6 20.33 35.33 21.5 35.5"></polygon>
                </g>
                <polygon id="mt" points="173.61 202.47 171.94 202.81 172 204.66 173.5 205.16 174.17 204.6"></polygon>
                <polygon id="es" points="129.36 177 116.62 177 114.05 175.84 112.81 175.93 111.31 179.05 111.84 182.26 116.71 182.71 117.33 184.76 115.21 196.71 115.3 198.85 118.75 200.72 122.73 200.99 130.69 199.03 134.58 194.13 134.67 189.14 141.57 182.9 141.92 180.14 135.64 180.05"></polygon>
                <polygon id="pt" points="111.93 183.24 111.31 191.89 109.54 193.49 109.72 194.47 110.96 196.52 110.16 199.02 111.49 199.47 114.59 199.11 114.41 196.61 116.44 185.02 116 183.42"></polygon>
                <g id="fr" transform="translate(123.000000, 150.000000)">
                    <polygon id="Shape" points="18.4 0.7 16.19 1.24 11.77 6.05 10.44 6.14 8.67 4.89 7.52 5.16 6.64 7.92 0.18 8.1 0.36 9.53 4.78 12.47 9.91 16.57 9.82 21.47 7.08 26.28 13.01 29.13 19.03 29.31 20.89 27.17 24.69 27.26 25.75 28.24 29.55 27.97 31.5 25.47 29.02 22.53 28.84 20.66 29.37 18.61 28.13 16.83 26.01 17.45 25.74 15.85 30.43 10.68 30.43 7.56 27.33 5.78 25.74 5.51"></polygon>
                    <polygon id="Shape" points="35.83 28.96 33.88 30.92 33.7 32.7 35.29 33.68 35.91 33.59 36.26 31"></polygon>
                </g>
                <polygon id="ie" points="120.51 138.55 119.6 144.55 111.53 147.51 108.96 147.51 107.13 146.22 107.13 145.11 111.17 142.52 110.07 140.3 110.25 137.16 113.74 137.34 115.34 133.58 115.13 136.92 117.84 139.07"></polygon>
                <polygon id="is" points="87.36 89.31 85.4 88.2 82.76 89.87 80.49 91.97 80.55 93.14 83.49 93.51 83.31 95.61 82.27 96.66 82.52 97.34 85.46 97.53 85.46 100.93 89.69 101.67 92.2 103.09 95.02 103.21 99.86 100.8 103.6 95.86 103.66 92.52 101.39 90.6 99.49 88.99 98.63 89.61 97.34 91.28 95.87 91.09 94.4 89.48 92.5 89.66 89.74 91.95 88.08 93.74 87.16 92.94 87.1 90.96 88.02 90.34"></polygon>
                <polygon id="gl" points="2.13 22.07 0.77 24.24 3.22 26.69 2.13 29.14 5.67 33.76 10.02 32.4 15.73 31.86 22.26 38.93 26.61 50.62 23.08 57.96 27.97 57.14 30.69 58.77 30.96 62.31 24.98 62.58 28.24 65.84 32.32 66.66 23.35 78.62 22.26 85.96 24.16 91.94 22.8 95.48 25.25 103.09 29.87 108.26 31.23 107.99 34.22 107.17 34.49 111.52 36.39 114.24 39.92 113.97 42.64 103.91 50.8 93.85 63.04 88.96 70.65 79.44 74.18 81.07 81.52 81.07 87.5 75.09 94.84 72.1 95.66 67.48 91.04 63.4 86.96 62.04 84.78 56.33 89.95 53.34 98.11 57.69 100.83 54.7 96.48 52.25 105.73 39.74 104.1 34.3 99.75 34.03 101.38 29.14 106.82 26.69 117.97 16.9 114.71 13.37 102.2 14.46 95.67 20.99 99.48 12.56 95.13 11.47 92.68 15.82 89.15 12.83 79.36 13.92 82.08 9.57 98.12 9.03 94.04 3.59 76.64 0.33 69.57 1.42 69.84 4.96 62.5 2.51 62.77 0.06 57.6 1.15 56.51 3.87 61.95 5.77 56.24 9.85 52.16 5.23 46.45 3.6 45.63 7.95 39.92 7.95 37.74 3.33 28.77 1.97 23.88 4.42 23.61 7.68 17.36 6.86 13.55 8.49 13.82 12.3 13.82 14.2 6.75 15.56 3.49 13.39 1.31 16.92 4.57 20.46 11.37 19.64 11.91 21.82 6.74 24.27"></polygon>
                <g id="gb" transform="translate(115.000000, 119.000000)">
                    <polygon id="Shape" points="4.42 14.47 1.12 14.84 0.94 17.8 3.14 19.28 5.52 18.73 6.44 17.07"></polygon>
                    <polygon id="Shape" points="12.12 2.08 10.29 4.85 11.02 5.96 15.24 5.96 15.24 7.81 14.14 9.29 14.87 13.17 17.25 17.79 19.08 22.04 22.01 23.15 23.29 25.37 23.11 27.4 21.28 28.51 21.1 29.43 22.38 30.17 21.28 31.65 18.71 32.76 13.76 32.21 6.05 35.72 3.48 34.43 10.82 30.18 9.9 29.63 6.05 29.26 8.43 25.75 8.8 22.79 11.92 22.42 11.37 16.69 7.7 16.51 6.6 15.22 6.78 10.97 4.58 11.15 6.78 3.76 10.82 0.8"></polygon>
                </g>
                <g id="ee" transform="translate(185.000000, 115.000000)">
                    <polygon id="Shape" points="13.77 0.66 8.17 0.46 4.62 2.63 4.57 4.24 6.87 6.41 14.02 7.62"></polygon>
                    <polygon id="Shape" points="2.76 4.64 1.21 4.59 0.31 5.5 0.96 6.46 2.51 6.56 3.31 5.4"></polygon>
                </g>
                <polygon id="cy" points="224.21 201.84 225.44 202.73 221.63 206.34 219.81 206.28 218.46 205.33 218.64 203.56 221.4 203.38"></polygon>
                <polygon id="no" points="196.46 74.14 198.48 72.66 198.3 71 197.02 70.26 197.2 68.23 198.3 68.23 198.3 67.12 193.53 65.83 186.38 66.57 185.65 69.71 184 69.16 182.9 67.31 179.41 67.49 179.04 71 177.39 71.74 176.47 69.89 169.13 75.8 170.6 77.46 167.85 78.75 161.61 91.13 159.41 92.61 159.59 93.72 161.79 94.83 161.24 97.23 157.57 97.04 156.47 95.75 154.09 98.52 152.62 99.63 152.25 102.22 150.97 102.96 147.67 103.7 146.02 108.88 147.12 117.38 148.4 121.26 149.87 122.74 153.17 122.56 157.94 117.94 159.77 114.8 160.32 119.42 163.44 113.88 163.62 98.35 166.16 96.75 166.92 88.18 174.62 77.09 178.29 75.8 179.94 73.77 185.44 75.06 188.19 76.72 189.11 72.1 193.7 69.33"></polygon>
                <g id="se" transform="translate(160.000000, 76.000000)">
                    <polygon id="Shape" points="18.72 0.58 20.68 2.39 24.35 2.39 26.37 6.27 26.92 12.92 21.97 16.43 21.97 19.94 18.48 24.75 16.46 24.93 13.71 29.55 13.89 33.99 18.66 37.5 18.29 39.53 16.46 42.3 13.71 44.7 13.89 52.65 9.67 54.13 8.2 57.27 6.18 57.27 5.08 51.73 0.49 44.69 4.26 38.38 4.52 22.79 7.12 21.36 7.75 12.44 15.16 1.83"></polygon>
                    <polygon id="Shape" points="19.49 46.17 17.38 47.84 18.44 50.29 20.31 48.47"></polygon>
                </g>
                <polygon id="fi" points="187.79 88.94 189.86 89.85 191.14 92.25 189.86 93.91 183.44 100.93 182.34 104.63 183.81 109.99 188.76 113.69 195.36 110.55 200.68 109.81 205.63 101.86 201.96 93.17 198.47 84.85 199.02 79.49 196.82 79.12 196.25 75.21 193.29 70.38 190.01 72.65 188.72 77.92 185.24 75.83 180.4 74.65 179.32 75.91 181.18 77.59 184.57 77.53 187.3 81.94"></polygon>
                <polygon id="lv" points="199.07 123.37 192.22 122.26 192.37 126.09 198.72 129.97 201.32 129.21 201.17 126.29"></polygon>
                <polygon id="lt" points="191.81 126.7 189.66 126.65 186.71 129.47 184.21 129.47 184.36 133 182.86 135.77 188.26 135.82 189.81 135.62 191.36 137.49 194.91 137.34 198.31 133.01 198.11 130.44"></polygon>
                <polygon id="by" points="191.66 138.29 193.16 140.76 192.56 142.73 192.66 144.29 193.21 146.16 196.31 144.4 200.16 144.5 202.86 145.61 209.71 145.61 211.71 140.82 212.91 139.01 212.91 137.8 208.61 131.75 204.81 130.24 201.71 129.89 199.01 130.75 199.11 133.47 195.36 138.21"></polygon>
                <polygon id="pl" points="192.46 146.76 193.31 148.32 193.51 149.98 192.81 151.59 191.21 154.67 189.86 155.28 188.11 154.52 187.06 154.57 184.51 155.53 181.61 154.67 176.91 151.34 172.31 148.87 170.46 146.05 170.11 139.4 173.71 136.27 178.41 134.71 180.16 134.51 179.46 135.92 179.91 136.47 187.82 136.62 189.52 136.57 192.32 140.86 191.62 142.62 191.92 144.69"></polygon>
                <polygon id="nl" points="151.09 140.27 146.56 142.5 147.52 143.37 147.62 145.6 146.66 145.41 145.6 143.76 143.07 147.77 146.96 148.58 148.41 150.11 149.18 150.13 149.69 146.67 152.14 145.64"></polygon>
                <polygon id="be" points="142.61 148.52 141.97 150.12 148.85 154.66 150.83 155.13 150.9 152.98 149.17 151.04 148.11 151.04 146.66 149.39"></polygon>
                <polygon id="de" points="152.14 139.88 155.71 139.3 155.71 136.78 158.7 136.29 160.34 137.94 162.07 138.13 164.77 136.96 167.18 137.64 169.3 139.48 169.59 146.37 171.71 149.19 168.92 149.58 164.29 152.49 164.68 153.46 168.82 157.34 168.53 159.28 164.68 161.22 161.11 161.32 160.24 163.16 158.41 163.16 157.54 161.22 154.36 160.44 154.26 157.24 151.56 155.4 151.85 153.07 150.02 150.55 150.5 147.25 153 146.08"></polygon>
                <g id="dk" transform="translate(153.000000, 123.000000)">
                    <polygon id="Shape" points="4.77 0.5 0.62 5.09 0.47 8.08 2.36 13.01 5.32 12.45 4.95 8.42 6.99 6.14 6.95 4.35 5.51 0.62"></polygon>
                    <polygon id="Shape" points="9.44 8.64 8.51 8.6 7.29 9.72 7.44 11.47 10.33 11.55 10.48 9.57"></polygon>
                </g>
                <polygon id="ch" points="153.91 161.38 149.55 166.02 149.64 166.49 151.43 165.93 153.04 168.17 155.76 167.21 157.64 168.67 158.41 168.23 160.73 164.59 160.14 164.03 157.85 163.97 156.74 161.7"></polygon>
                <polygon id="cz" points="169.43 156.87 172.4 156.87 173.86 156.87 176.23 158.56 180.62 154.91 176.36 151.87 172.14 149.83 169.25 150.35 165.33 152.87"></polygon>
                <polygon id="at" points="161.63 162.12 160.98 163.47 161.54 164.43 163.87 163.95 165.85 163.95 168 165.77 172.57 164.94 175.93 162.94 176.79 161.59 176.66 159.85 173.64 157.59 169.59 157.63 169.25 159.93 164.99 162.01"></polygon>
                <polygon id="hu" points="177.74 161.6 176.58 163.42 176.67 166.2 178.52 167.15 184.21 167.32 192.14 160.64 192.18 159.16 191.32 158.73 185.59 161.33"></polygon>
                <polygon id="si" points="175.8 163.99 173.26 165.51 168.52 166.55 169.47 169.29 172.79 169.33 175.85 166.77"></polygon>
                <polygon id="hr" points="176.62 167.16 173.09 170.07 169.51 170.07 169.08 172.59 170.72 173.02 171.54 171.8 172.83 172.93 173.86 176.53 180.93 179.83 181.63 179.03 174.46 171.63 175.19 170.28 182 170.02 182.69 167.85 178.25 167.98"></polygon>
                <polygon id="ba" points="175.8 170.94 175.43 171.55 182.14 178.47 184.6 174.85 184.51 173.42 182.36 170.81"></polygon>
                <polygon id="ua" points="196.57 145.15 193.67 146.78 194.39 149.86 191.71 155.51 191.73 158 192.99 158.8 201.07 159.2 203.33 157.33 205.75 158.14 209.22 162.77 206.68 167.33 209.7 168.21 213.65 163.66 215.91 164.07 218.01 165.53 216.16 167.97 218.66 171.87 221.32 171.87 222.69 169.27 225.51 168.7 225.59 166.59 220.35 165.78 220.51 163.51 225.59 163.51 231.07 159.12 233.49 157.01 233.89 150.35 223.09 149.38 218.66 143.13 215.6 142.08 211.89 142.24 210.22 146.37 202.62 146.47 200.15 145.33"></polygon>
                <polygon id="md" points="201.75 159.71 204.85 164.48 204.59 167.18 205.7 167.23 208.33 162.78 205.17 158.86 203.38 158.12"></polygon>
                <polygon id="ro" points="193.18 159.6 192.92 161.08 187.13 165.9 191.97 173 195.07 175.17 200.65 175.17 202.49 173.63 204.96 173.31 206.8 174.42 210.06 170.71 209.43 168.85 206.12 168 203.86 167.89 203.97 164.71 200.97 159.99"></polygon>
                <polygon id="rs" points="186.55 166.54 184.5 168.08 183.5 168.08 182.82 170.2 185.24 173.01 185.4 175.24 182.4 179.48 182.82 180.75 184.56 181.07 185.93 179.21 186.67 179.16 187.93 180.38 191.77 179.21 191.45 173.75"></polygon>
                <polygon id="bg" points="192.44 174.39 192.6 179.37 194.28 182.87 200.59 182.98 203.43 180.97 206.22 179.86 205.54 176.68 206.17 174.98 204.75 174.24 202.8 174.4 201.27 175.94 194.85 175.99"></polygon>
                <polygon id="al" points="185.02 181.76 185.02 186.37 186.34 188.86 187.29 188.75 188.92 185.78 187.97 184.45 187.6 181.16 186.34 179.99"></polygon>
                <polygon id="mk" points="191.92 180.01 188.55 181.12 188.71 183.98 189.5 184.99 193.5 183.13"></polygon>
                <polygon id="sk" points="176.84 159.13 177.53 159.74 177.62 160.78 185.25 160.61 190.89 158.18 190.8 155.71 189.72 156.19 188.17 155.36 187.22 155.32 184.72 156.32 181.32 155.5"></polygon>
            </g>
        </g>
    </g>
</svg>